<?xml version="1.0" standalone="no"?>
<!DOCTYPE svg PUBLIC "-//W3C//DTD SVG 1.1//EN" "http://www.w3.org/Graphics/SVG/1.1/DTD/svg11.dtd">
<svg class="icon" height="512" viewBox="0 0 1024 1024" version="1.1" xmlns="http://www.w3.org/2000/svg">
    <path d="M875.856034 251.483416H148.143966c-57.812279 0-105.50741 46.972477-105.50741 105.50741v310.018348c0 57.812279 46.972477 105.50741 105.50741 105.50741h727.712068c57.812279 0 105.50741-46.972477 105.50741-105.50741V356.990826c0-57.812279-46.972477-105.50741-105.50741-105.50741z m56.366972 415.525758c0 31.0741-25.292872 56.366972-56.366972 56.366973H148.143966c-31.0741 0-56.366972-25.292872-56.366972-56.366973V356.990826c0-31.0741 25.292872-56.366972 56.366972-56.366973h727.712068c31.0741 0 56.366972 25.292872 56.366972 56.366973v310.018348z" fill="#20A8EE" />
    <path d="M340.369795 380.115737h-31.796753c-4.335921 0-7.949188 3.613267-7.949189 7.949189v174.882145l-115.624559-179.218066c-1.445307-2.16796-4.335921-3.613267-7.226535-3.613268h-39.745942c-4.335921 0-7.949188 3.613267-7.949188 7.949189V635.935074c0 4.335921 3.613267 7.949188 7.949188 7.949189h31.796754c4.335921 0 7.949188-3.613267 7.949188-7.949189V461.775582v-2.890614l117.79252 181.386027c1.445307 2.16796 4.335921 3.613267 7.226535 3.613268h37.577981c4.335921 0 7.949188-3.613267 7.949189-7.949189V388.064926c0-4.335921-3.613267-7.949188-7.949189-7.949189zM537.654199 599.079746H444.431898v-66.484121h80.214538c4.335921 0 7.949188-3.613267 7.949189-7.949189v-28.183486c0-4.335921-3.613267-7.949188-7.949189-7.949189H444.431898v-62.870853h87.441073c4.335921 0 7.949188-3.613267 7.949188-7.949189v-28.183486c0-4.335921-3.613267-7.949188-7.949188-7.949189H403.963303c-4.335921 0-7.949188 3.613267-7.949189 7.949189V635.935074c0 4.335921 3.613267 7.949188 7.949189 7.949189h132.968243c4.335921 0 7.949188-3.613267 7.949188-7.949189v-28.183486c0.722653-5.058574-2.890614-8.671842-7.226535-8.671842zM885.973183 380.115737h-34.687368c-3.613267 0-7.226535 2.890614-7.949188 6.503882l-45.52717 175.604799-47.695131-175.604799c-0.722653-3.613267-4.335921-5.781228-7.949188-5.781228h-31.796754c-3.613267 0-7.226535 2.16796-7.949189 5.781228l-50.585744 177.050106-47.695131-177.050106c-0.722653-3.613267-4.335921-5.781228-7.949188-5.781228h-35.410021c-2.890614 0-5.058574 1.445307-6.503882 3.613267-1.445307 2.16796-2.16796 5.058574-1.445307 7.226535l71.542696 247.147495c0.722653 3.613267 4.335921 5.781228 7.949189 5.781228h36.855328c3.613267 0 7.226535-2.16796 7.949188-5.781228l46.972477-166.210303 46.249824 166.210303c0.722653 3.613267 4.335921 5.781228 7.949188 5.781228h37.577982c3.613267 0 7.226535-2.16796 7.949188-5.781228l69.374736-247.147495c0.722653-2.16796 0-5.058574-1.445307-7.226535-0.722653-2.890614-2.890614-4.335921-5.781228-4.335921z" fill="#20A8EE" />
</svg>